Coordinates
version=1
nRows=17
nColumns=38
inDegrees=no

Units are S.I. units (second, meters, Newtons, ...)
If the header above contains a line with 'inDegrees', this indicates whether rotational values are in degrees (yes) or radians (no).

endheader
time	pelvis_tilt	pelvis_list	pelvis_rotation	pelvis_tx	pelvis_ty	pelvis_tz	hip_flexion_r	hip_adduction_r	hip_rotation_r	knee_angle_r	ankle_angle_r	subtalar_angle_r	mtp_angle_r	hip_flexion_l	hip_adduction_l	hip_rotation_l	knee_angle_l	ankle_angle_l	subtalar_angle_l	mtp_angle_l	lumbar_extension	lumbar_bending	lumbar_rotation	arm_flex_r	arm_add_r	arm_rot_r	elbow_flex_r	pro_sup_r	wrist_flex_r	wrist_dev_r	arm_flex_l	arm_add_l	arm_rot_l	elbow_flex_l	pro_sup_l	wrist_flex_l	wrist_dev_l
1.11	2.74639	1.26637	-1.00596	0.631782	0.680944	0.947604	-0.0374532	0.0993227	-0.405846	0.295356	-0.286567	0	0	-0.378483	-0.293732	-0.266078	0.98779	-0.287121	0	0	-0.393862	0.193531	-0.257676	0.141389	-0.479776	1.1053	0.65502	0.507273	0	0	-0.225779	-0.357029	0.00136818	0.960355	1.5708	0	0
1.12	2.74973	1.26477	-1.01208	0.63316	0.691752	0.94915	-0.0625494	0.108371	-0.383682	0.270535	-0.27971	0	0	-0.351542	-0.299363	-0.256421	1.04599	-0.285825	0	0	-0.397068	0.191341	-0.252518	0.137106	-0.4793	1.09562	0.657283	0.513059	0	0	-0.235198	-0.356578	0.00455785	0.95886	1.5708	0	0
1.13	2.76057	1.26403	-1.02505	0.634311	0.702432	0.950727	-0.0781798	0.109724	-0.38212	0.268652	-0.269744	0	0	-0.324811	-0.300971	-0.245262	1.10017	-0.263112	0	0	-0.399924	0.186723	-0.248887	0.137499	-0.47973	1.09985	0.659023	0.503615	0	0	-0.244445	-0.355898	0.00638861	0.957404	1.5708	0	0
1.14	2.77542	1.2629	-1.04099	0.63532	0.712842	0.95244	-0.0958267	0.110283	-0.380984	0.264514	-0.26438	0	0	-0.298473	-0.300721	-0.232773	1.14848	-0.23904	0	0	-0.403623	0.181341	-0.246247	0.139414	-0.479659	1.10675	0.659647	0.493145	0	0	-0.25265	-0.35693	0.0110476	0.956218	1.56512	0	0
1.15	2.79164	1.26116	-1.0581	0.636267	0.723005	0.954175	-0.115905	0.110982	-0.377302	0.257033	-0.259793	0	0	-0.272562	-0.299813	-0.221065	1.19146	-0.213496	0	0	-0.407696	0.176011	-0.242693	0.141752	-0.480891	1.11589	0.661677	0.479108	0	0	-0.258661	-0.360897	0.0227367	0.954806	1.54631	0	0
1.16	2.81774	1.2936	-1.09285	0.63889	0.734759	0.951343	-0.0891358	0.089943	-0.356565	0.263136	-0.252251	0	0	-0.215018	-0.278675	-0.21265	1.24158	-0.178303	0	0	-0.376966	0.144946	-0.243859	0.129601	-0.472375	1.09928	0.658506	0.494196	0	0	-0.284502	-0.356635	-0.000666893	0.964114	1.55811	0	0
1.17	2.81185	1.26618	-1.07968	0.6381	0.743769	0.956832	-0.15044	0.111709	-0.366867	0.235599	-0.247838	0	0	-0.209035	-0.295868	-0.197958	1.26448	-0.167837	0	0	-0.406962	0.163108	-0.242358	0.136045	-0.468472	1.09347	0.648634	0.503731	0	0	-0.28113	-0.347718	-0.00571873	0.954448	1.56197	0	0
1.18	2.82727	1.26538	-1.09534	0.639067	0.753914	0.958231	-0.17282	0.113559	-0.359744	0.219987	-0.246894	0	0	-0.181154	-0.293487	-0.187507	1.29081	-0.15766	0	0	-0.411116	0.157038	-0.24192	0.135252	-0.466061	1.08837	0.648895	0.510007	0	0	-0.291873	-0.345632	-0.0133573	0.957646	1.56128	0	0
1.19	2.83888	1.26655	-1.10821	0.640125	0.764105	0.959433	-0.193574	0.11608	-0.349361	0.201509	-0.246432	0	0	-0.15135	-0.290335	-0.177952	1.31111	-0.147436	0	0	-0.41229	0.150724	-0.240943	0.133555	-0.461713	1.08142	0.645994	0.516455	0	0	-0.30187	-0.34364	-0.0196567	0.958763	1.55963	0	0
1.2	2.85091	1.2679	-1.12244	0.64119	0.774244	0.960547	-0.213526	0.117488	-0.339722	0.184877	-0.246	0	0	-0.12254	-0.286103	-0.170242	1.32505	-0.140267	0	0	-0.413159	0.144002	-0.238629	0.131051	-0.457439	1.07345	0.6433	0.521506	0	0	-0.310263	-0.342198	-0.0240724	0.958846	1.55767	0	0
1.21	2.84371	1.25945	-1.12484	0.642511	0.785772	0.960948	-0.244918	0.128187	-0.325163	0.162076	-0.247264	0	0	-0.106539	-0.353181	-0.282494	1.34905	-0.167741	0	0	-0.417485	0.144773	-0.228088	0.129749	-0.468896	1.08374	0.661225	0.505644	0	0	-0.325099	-0.344968	-0.0171719	0.967842	1.53812	0	0
1.22	2.87705	1.26976	-1.15638	0.643313	0.794426	0.962567	-0.253411	0.117586	-0.323154	0.154773	-0.239927	0	0	-0.0708914	-0.275947	-0.165128	1.33586	-0.123296	0	0	-0.413252	0.130265	-0.227386	0.134239	-0.457325	1.09389	0.643598	0.494134	0	0	-0.318887	-0.349642	-0.00439472	0.953536	1.52784	0	0
1.23	2.88728	1.29088	-1.18826	0.6462	0.806761	0.958849	-0.228719	0.103522	-0.312505	0.175188	-0.227087	0	0	-0.0319843	-0.325252	-0.291087	1.36036	-0.143309	0	0	-0.388044	0.108076	-0.211755	0.12526	-0.468122	1.10014	0.665346	0.478768	0	0	-0.341892	-0.354748	-0.000962865	0.967726	1.51184	0	0
1.24	2.90458	1.29026	-1.21235	0.647284	0.816668	0.959714	-0.247855	0.100931	-0.310828	0.165822	-0.224703	0	0	-0.0126712	-0.3197	-0.298435	1.3533	-0.135461	0	0	-0.390611	0.10007	-0.20338	0.126284	-0.468525	1.10628	0.667442	0.466416	0	0	-0.3446	-0.358879	0.00959879	0.965394	1.49868	0	0
1.25	2.93966	1.29966	-1.2473	0.647945	0.8251	0.96082	-0.251711	0.0894864	-0.313146	0.165882	-0.221273	0	0	0.0198339	-0.244031	-0.19249	1.32593	-0.0894552	0	0	-0.389571	0.0852923	-0.204383	0.127711	-0.45209	1.09451	0.647048	0.48258	0	0	-0.343214	-0.354082	-0.00258977	0.95655	1.51302	0	0
1.26	2.93417	1.28879	-1.25692	0.649234	0.836411	0.961046	-0.282074	0.0948396	-0.306594	0.154018	-0.217516	0	0	0.0214276	-0.308574	-0.320406	1.32565	-0.112941	0	0	-0.399888	0.0831766	-0.190594	0.122727	-0.458908	1.0824	0.661501	0.493947	0	0	-0.358151	-0.348116	-0.0157412	0.967145	1.51867	0	0
1.27	2.93316	1.25643	-1.2542	0.648657	0.845584	0.965338	-0.364885	0.110833	-0.301708	0.097709	-0.228366	0	0	0.0045324	-0.318091	-0.331231	1.2948	-0.114344	0	0	-0.437609	0.0944878	-0.185433	0.124961	-0.460685	1.0691	0.66614	0.50117	0	0	-0.354826	-0.343063	-0.0200131	0.965065	1.52355	0	0
